# xmcd CD database file
# Generated: Sat Nov 10 11:55:28 2001 by KSCD
# 
# Track frame offsets:
#       150
#       16116
#       30936
#       41310
#       51986
#       63975
#       79048
#       91105
#       104649
#       118880
#       130455
#       142567
#       155687
#       168159
#       178314
#       193022
#       209290
#
# Disc length: 2993 seconds
#
# Revision: 3
# Processed by: cddbd v1.4PL0 Copyright (c) Steve Scherf et al.
# Submitted via: Kscd 1.3.0
#
DISCID=de0baf11
DTITLE=Edwin Starr - The Essential Collection
DYEAR=1900
DGENRE=
TTITLE0=Contact
TTITLE1=War
TTITLE2=I Have Faith In You
TTITLE3=I'm Still a Struggling Man
TTITLE4=Ooh Baby Baby (duet with Blinky Williams)
TTITLE5=You've Got My Soul on Fire
TTITLE6=24 Hours (to find my baby)
TTITLE7=There You Go
TTITLE8=Funky Music Sho Nuff Turns Me On
TTITLE9=I want my Baby Back
TTITLE10=Ain't it Hell Up In Harlem
TTITLE11=Time
TTITLE12=Back Street
TTITLE13=Who Is the Leader Of The People
TTITLE14=Easin' In
TTITLE15=Stop The War Now
TTITLE16=H.A.P.P.Y. Radio
EXTD=
EXTT0=
EXTT1=
EXTT2=
EXTT3=
EXTT4=
EXTT5=
EXTT6=
EXTT7=
EXTT8=
EXTT9=
EXTT10=
EXTT11=
EXTT12=
EXTT13=
EXTT14=
EXTT15=
EXTT16=
PLAYORDER=
